<svg width="603" height="174" viewBox="0 0 603 174" fill="none" xmlns="http://www.w3.org/2000/svg">
<g clip-path="url(#clip0_585:521)">
<path d="M91.9001 68.9223C99.4328 77.9613 103.199 90.0132 103.199 105.078V171.74H76.0812V106.585C76.0812 99.0522 74.198 92.6496 69.6783 88.1301C65.5353 83.6106 59.8857 81.3509 53.1062 81.3509C42.9369 81.3509 34.2742 86.6236 27.4947 97.169V171.74H0V58.0002H24.4816L25.6115 71.182C33.1443 61.0132 44.8201 55.7405 59.8857 55.7405C73.8214 55.7405 84.3673 59.8833 91.9001 68.9223Z" fill="black"/>
<path d="M225.984 72.3116C237.283 83.6103 242.932 97.922 242.932 114.87C242.932 131.818 237.283 146.13 225.984 157.052C214.685 168.351 200.372 173.623 183.423 173.623C166.475 173.623 152.162 167.974 141.24 157.052C130.317 146.13 124.291 132.195 124.291 114.87C124.291 97.5453 129.941 83.6103 140.863 72.3116C152.162 61.0129 166.098 55.3635 183.047 55.3635C200.372 55.7401 214.685 61.0129 225.984 72.3116ZM160.825 89.6362C154.799 96.4155 152.162 104.701 152.162 115.247C152.162 125.792 155.175 134.078 160.825 140.48C166.851 146.883 174.384 150.273 183.423 150.273C192.463 150.273 200.372 146.883 206.398 140.48C212.425 134.078 215.438 125.415 215.438 115.247C215.438 105.078 212.425 96.4155 206.398 89.6362C200.372 82.857 192.839 79.4674 183.423 79.4674C174.007 79.4674 166.475 82.857 160.825 89.6362Z" fill="black"/>
<path d="M301.311 57.9998H335.585V80.9738H301.311V131.441C301.311 137.091 302.818 141.234 306.207 144.623C309.221 147.636 313.364 149.519 318.637 149.519C324.286 149.519 329.559 148.389 334.832 145.753L341.988 167.597C335.209 172.117 326.923 174 316.753 174C303.571 174 293.025 170.234 285.492 163.078C277.959 155.922 274.193 145.376 274.193 131.818V80.9738H252.725V57.9998H274.193V19.5842H301.311V57.9998Z" fill="black"/>
<path d="M435.773 7.53247L425.603 29.3766C421.837 25.6104 417.317 24.1039 411.668 24.1039C406.395 24.1039 402.628 25.987 399.615 29C396.602 32.3896 395.472 36.9091 395.472 42.9351V58H423.344V80.974H395.472V171.74H367.978V80.974H348.016V58H367.978V44.4416C367.978 31.2597 371.744 20.7143 379.277 12.4286C386.809 4.14286 396.979 0 409.785 0C420.33 0 428.993 2.63636 435.773 7.53247Z" fill="black"/>
<path d="M470.046 171.74H442.552V58H470.046V171.74Z" fill="black"/>
<path d="M591.701 68.9223C599.234 77.9613 603 90.0132 603 105.078V171.74H575.882V106.585C575.882 99.0522 573.999 92.6496 569.479 88.1301C565.336 83.6106 559.686 81.3509 552.907 81.3509C542.738 81.3509 534.075 86.6236 527.295 97.169V171.74H499.801V58.0002H524.282L525.412 71.182C532.945 61.0132 544.621 55.7405 559.686 55.7405C573.622 55.7405 584.168 59.8833 591.701 68.9223Z" fill="black"/>
<path d="M201.125 99.8053C203.385 102.442 204.515 105.455 204.515 109.598C204.515 113.364 203.385 116.753 201.125 119.013C198.865 121.273 196.229 122.779 192.839 122.779C189.449 122.779 186.813 121.649 184.553 119.013C182.293 116.377 181.163 113.364 181.163 109.598C181.163 105.831 182.293 102.442 184.553 99.8053C186.813 97.1689 189.449 96.0391 192.839 96.0391C195.852 96.0391 198.865 97.1689 201.125 99.8053Z" fill="black"/>
</g>
<defs>
<clipPath id="clip0_585:521">
<rect width="603" height="174" fill="white"/>
</clipPath>
</defs>
</svg>
