<svg width="384" height="383" viewBox="0 0 384 383" fill="none" xmlns="http://www.w3.org/2000/svg">
<path d="M329.07 54.4289C365.523 90.8814 383.499 136.821 383.499 192.249C383.499 247.177 365.523 293.117 329.07 329.07C292.618 365.023 246.678 383 191.25 383C136.322 383 90.382 365.023 54.4289 329.07C18.4759 293.117 0 247.677 0 192.748C0 137.321 17.9765 90.8814 53.9296 54.9283C90.382 17.9765 135.823 0 191.25 0C246.678 0 292.618 17.9765 329.07 54.4289ZM117.846 110.356C98.8709 131.828 89.3833 159.292 89.3833 192.748C89.3833 226.205 98.8709 253.17 117.846 274.142C136.821 295.614 161.289 306.1 191.25 306.1C221.211 306.1 245.679 295.614 265.154 274.142C284.628 253.17 294.615 225.705 294.615 192.748C294.615 159.791 284.628 132.327 265.154 110.356C245.679 88.884 221.211 77.8983 191.25 77.8983C161.289 77.399 136.821 88.3846 117.846 110.356Z" fill="black"/>
<path d="M248.678 143.313C256.168 151.802 259.663 162.288 259.663 174.772C259.663 187.255 256.168 197.742 248.678 205.731C241.187 213.721 232.199 218.215 221.713 218.215C210.727 218.215 201.739 214.22 194.748 205.731C187.757 197.742 184.262 187.255 184.262 174.772C184.262 162.288 187.757 151.802 194.748 143.313C201.739 134.824 210.727 130.829 221.713 130.829C232.199 130.829 241.187 135.323 248.678 143.313Z" fill="black"/>
</svg>
